<svg xmlns="http://www.w3.org/2000/svg" width="136.5" height="50.5"><path fill="#77c167" d="M30.365 5.064a36.08 36.08 0 00-9.09 10.35c22.25-7.5 19.895 25.751-.778 21.46a29.153 29.153 0 01-4.156 13.64c.58-4.514 2.5-8.785-1.038-13.892-2.019-2.913-9.825-1.845-12.467-4.8-7.339-8.2.569-21.57 11.948-15.651-1.22-3.867-2.13-11.974.258-16.158 1.771-.123 2.4.862 3.637 1.262.54.556-.412 1.084-.262 2.019.713-.908 1.167-2.065 1.819-3.029a6.5 6.5 0 013.378 2.274c-.653 1.554-1.5 2.912-2.079 4.543 1.963-.953 3.925-4.095 6.753-5.05 1.425.3 1.447 1.959 2.077 3.029"/><path fill="#3d3935" d="M54.794 37.4l.476 2.315a13.844 13.844 0 00.422 2.242 13.35 13.35 0 01.422 2.334v.037a1.01 1.01 0 01-.736 1.066 3.32 3.32 0 01-1.449-.257 1 1 0 01-.519-.992 24.313 24.313 0 00-.649-4.65l-4.368-.551a16.319 16.319 0 00-.628 2.738 18.231 18.231 0 01-.41 2.169 1.546 1.546 0 01-1.449 1.4 1.749 1.749 0 01-.963-.285.843.843 0 01-.443-.726l.109-.331a139.243 139.243 0 004.433-19.077q.043-.257.129-1.507a7.383 7.383 0 01.822-3.51h1.492a2.243 2.243 0 011.06.239.768.768 0 01.455.717 59.249 59.249 0 00.9 8.509 58.87 58.87 0 01.894 8.12zm-2.314.754a9.659 9.659 0 01-.13-1.92q0-1.369-.184-3.4t-.529-4.723q-.346-2.693-.476-3.905-2.012 9.465-2.595 13.342a11.951 11.951 0 003.914.611zm5.559-2.205l-.022-2.205v-.9a30.9 30.9 0 01.649-7.719 6.872 6.872 0 012.162-3.713 7.629 7.629 0 014.758-1.433 1.6 1.6 0 011.027.276.83.83 0 01.336.661 1.009 1.009 0 01-.271.689.93.93 0 01-.681.322h-2.076a1.909 1.909 0 00-1.579.992 7.1 7.1 0 00-.952 2.426 21.794 21.794 0 00-.541 4.5v.184l-.194 7.259a11.6 11.6 0 00.292 3.179 7.8 7.8 0 00.606 1.425 3.128 3.128 0 00.746.891 3.914 3.914 0 002.552.809 1.529 1.529 0 00.951-.331 2.079 2.079 0 01.93.2.66.66 0 01.411.625q0 1.489-2.443 1.489a9.444 9.444 0 01-2.088-.248 6.7 6.7 0 01-1.632-.542q-2.941-1.609-2.941-8.832zM79.145 37.4l.476 2.315a13.844 13.844 0 00.422 2.242 13.35 13.35 0 01.422 2.334v.037a1.009 1.009 0 01-.736 1.066 3.32 3.32 0 01-1.449-.257 1 1 0 01-.519-.992 24.313 24.313 0 00-.649-4.65l-4.368-.551a16.319 16.319 0 00-.628 2.738 18.231 18.231 0 01-.41 2.169 1.545 1.545 0 01-1.449 1.4 1.749 1.749 0 01-.963-.285.843.843 0 01-.443-.726l.109-.331a139.243 139.243 0 004.433-19.077q.043-.257.13-1.507a7.374 7.374 0 01.821-3.51h1.492a2.243 2.243 0 011.06.239.768.768 0 01.455.717 59.136 59.136 0 00.9 8.509 58.987 58.987 0 01.894 8.12zm-2.313.754a9.561 9.561 0 01-.131-1.92q0-1.369-.183-3.4t-.53-4.723q-.346-2.693-.476-3.905-2.012 9.465-2.595 13.342a11.954 11.954 0 003.915.611zm6.119 2.187l.13-11.854q0-1.212-.259-3.7t-.26-3.17a1.247 1.247 0 01.5-1.056 1.728 1.728 0 011.06-.377q4.563 0 7.418 4.54a10.065 10.065 0 011.64 5.476l-.086 1.894v2.076a20.3 20.3 0 01-.4 5.055 13.939 13.939 0 01-.833 2.113 6.794 6.794 0 01-1.038 1.507 10.349 10.349 0 01-3.547 2.426h-3.2q-1.124 0-1.125-4.925zm3.093 2.113v.9q3.849 0 4.628-6.616a26.191 26.191 0 00.173-2.941q0-11.358-5.147-11.873a20.091 20.091 0 00-.325 4.089q0 2.6.335 8.133t.336 8.313zm10.38-16.412l-.237-3.18q0-2.665 1.859-2.665a15.574 15.574 0 013.245.468q2.053.469 2.054 1.2 0 .772-1.3 1.177a20.045 20.045 0 00-3.352-.717q.065.809.065 1.618l-.195 5.4c0 .025.044.22.13.588l1.579-.055q2.14 0 2.141 1.029a.883.883 0 01-.39.708 1.551 1.551 0 01-.983.3 12.244 12.244 0 01-1.287-.073H98.63q.131 1.433.13 2.848l-.195 6.818a9.714 9.714 0 00.087 2.114l3.265-.092q1.688 0 1.687.919a.862.862 0 01-.583.827 3.245 3.245 0 01-1.32.257h-3.742a1.781 1.781 0 01-1.059-.34 1.053 1.053 0 01-.5-.818V43.4l-.28-6.359zm25.8 18.617l.021-4.815q0-1.673-.324-4.907t-.321-4.35q0-1.121.087-2.674t.086-2.325q-.2.5-1.492 5.2-3.374 12.167-4.823 12.166a1.94 1.94 0 01-1.352-.441 1.512 1.512 0 01-.486-1.176 33.688 33.688 0 00-1.654-7.342q-1.656-5.559-2.8-8.518-.843 13.269-.844 17.937l.065 1.121a1.3 1.3 0 01-.3.928 1.256 1.256 0 01-.952.322 1.919 1.919 0 01-1.06-.267.759.759 0 01-.411-.634q0-3.841.682-11.5t.681-11.505a1.276 1.276 0 01-.26-.78.716.716 0 01.541-.653 3.068 3.068 0 011.168-.221q.951 0 3.763 7.563a97.594 97.594 0 013.46 10.467q.195-.552.811-2.785t1.308-4.641q.693-2.427 1.514-4.889 1.86-5.66 3.158-5.661a2.312 2.312 0 011.1.276.836.836 0 01.519.754q0 2.72.281 8.123t.28 7.847l-.107 3.97v.018q0 .423.259 2.683l.087.735a1.944 1.944 0 01.194.855 1.587 1.587 0 01-.411.965 1.317 1.317 0 01-1.081.515q-1.386-.003-1.387-2.356zm11.7-1.617q0 2.518-1.45 2.518a1.343 1.343 0 01-1.232-.827q.5-.827.5-6.377a24.144 24.144 0 00-.238-2.867q-.237-1.857-.281-2.646v-.97q-.085-.166-1.384-2.977-2.942-6.3-2.941-7.517v-.2l.994-.624q1.363.018 3.244 5.826.823 2.536.822 2.555a27.453 27.453 0 00.692-2.812q1.319-6.1 2.768-6.1a1.329 1.329 0 01.746.221.66.66 0 01.336.57 18.017 18.017 0 01-1.265 5.449 19.306 19.306 0 00-1.308 5.449v11.34zM44.955 5.4l-.117-.958v-.1a1.135 1.135 0 01.144-.615.849.849 0 01.733-.226 2.71 2.71 0 011.155.262 2.224 2.224 0 01.893.723 3.442 3.442 0 01.649 2.061 6.6 6.6 0 01-.2 1.83 3.56 3.56 0 01-.681 1.252 3.138 3.138 0 01.979 2.287c.014.241.022.53.027.868a4.523 4.523 0 01-.1.994 3.43 3.43 0 01-.351.931 2.869 2.869 0 01-2.754 1.473.552.552 0 01-.585-.343 2.263 2.263 0 01-.1-.633l.213-3.941zm.926 8.921l.021.09v.832a1.6 1.6 0 001.1-.736 2.126 2.126 0 00.367-1.1c0-.34 0-.61-.017-.809a5.415 5.415 0 00-.1-.732 4.451 4.451 0 00-.213-.759 1.317 1.317 0 00-.989-.913q-.1 1.193-.1 2.8zm.138-7.972v2.757q1.149-.028 1.149-2.341t-.894-2.4a4.929 4.929 0 00-.255 1.989zm4.073.307L49.975 5.1q0-1.311.915-1.311a7.635 7.635 0 011.6.23q1.011.231 1.011.592a.708.708 0 01-.638.578 9.852 9.852 0 00-1.649-.352q.031.4.032.8l-.1 2.657c0 .012.022.109.064.289l.777-.027q1.053 0 1.053.506a.433.433 0 01-.192.348.763.763 0 01-.484.149 6 6 0 01-.633-.036h-.553q.065.705.064 1.4l-.1 3.353a4.806 4.806 0 00.043 1.039l1.606-.045q.829 0 .83.452a.424.424 0 01-.288.407 1.592 1.592 0 01-.648.126h-1.84a.878.878 0 01-.522-.167.516.516 0 01-.244-.4v-.494l-.138-3.127zm4.84 0L54.815 5.1q0-1.311.914-1.311a7.651 7.651 0 011.6.23q1.01.231 1.01.592a.707.707 0 01-.638.578 9.852 9.852 0 00-1.649-.352c.022.265.032.53.032.8l-.095 2.657q0 .018.063.289l.777-.027q1.053 0 1.053.506a.433.433 0 01-.192.348.761.761 0 01-.484.149 5.977 5.977 0 01-.632-.036h-.553q.063.705.063 1.4l-.095 3.353a4.861 4.861 0 00.042 1.039l1.606-.045q.829 0 .83.452a.424.424 0 01-.287.407 1.6 1.6 0 01-.649.126h-1.84a.875.875 0 01-.521-.167.518.518 0 01-.245-.4v-.494l-.138-3.127zm6.658 9.047l-.043-1.419.032-.633q-.086-.235-.346-4.176t-.281-4.817h-.085q-1.767-.028-1.766-.551a.334.334 0 01.234-.285 1.044 1.044 0 01.457-.113l2.957.172.351-.009q.681 0 .681.443a.419.419 0 01-.224.366.919.919 0 01-.5.14l-1-.126-.043.19q0 1.753.362 5.251t.361 5.261a.473.473 0 01-.234.384.855.855 0 01-.51.167zm4.275-5.9l-.021 2.007a14.2 14.2 0 00.415 3.859l-.245.5h-.606l-.287-.271q.021-.831.021-1.867t-.186-4.424q-.186-3.39-.186-5.062a.715.715 0 01.723-.877 3.439 3.439 0 011.915.506 1.628 1.628 0 01.776 1.446v1.3a2.031 2.031 0 01-.234.972q-.234.439-.542.922c-.206.322-.319.5-.341.538q.117.452.415 1.772a14.343 14.343 0 001.415 4.149 1.209 1.209 0 01.223.565.482.482 0 01-.133.343.467.467 0 01-.356.14 1.219 1.219 0 01-.878-.89 9.959 9.959 0 01-.675-1.975 36.783 36.783 0 00-.947-3.652h-.266zm.085-5.45l-.074.262q0 .759.043 2.192t.042 2.083a1.821 1.821 0 00.825-1.18 5.153 5.153 0 00.313-1.46 6.083 6.083 0 00-.032-.746 2.489 2.489 0 00-.138-.529.961.961 0 00-.979-.619zm3.946 5.993l.022-.705c0-.06-.011-.09-.032-.09v-.332a15.187 15.187 0 01.393-4.14 2.924 2.924 0 01.638-1.283.982.982 0 01.607-.244 3.489 3.489 0 013.488 2.169 7.572 7.572 0 01.553 3.073v.136l.043 2.1q0 5.324-2.9 5.324a2.01 2.01 0 01-1.84-1.13 5.979 5.979 0 01-.744-2.133 19.965 19.965 0 01-.224-2.742zm1.287-2.531l-.106 1.708a19.066 19.066 0 00.51 4.682 2.7 2.7 0 001.032 1.374 1.076 1.076 0 00.713-.272 1.856 1.856 0 00.5-.727 7.218 7.218 0 00.314-.963 9.163 9.163 0 00.181-1.066 16.272 16.272 0 00.106-1.681q0-.7-.143-2.133T74.151 6.6v-.328a1.8 1.8 0 00-.521-1.207 1.682 1.682 0 00-1.277-.529.963.963 0 00-.989.714 4.632 4.632 0 00-.2 1.473zm5.637 2.531l.022-.705c0-.06-.011-.09-.032-.09v-.332a15.187 15.187 0 01.393-4.14 2.924 2.924 0 01.638-1.283.982.982 0 01.607-.244 3.489 3.489 0 013.488 2.169 7.572 7.572 0 01.553 3.073v.136l.043 2.1q0 5.324-2.9 5.324a2.01 2.01 0 01-1.84-1.13 5.979 5.979 0 01-.744-2.133 19.965 19.965 0 01-.228-2.742zm1.287-2.531L78 9.526a19.066 19.066 0 00.51 4.682 2.7 2.7 0 001.032 1.374 1.076 1.076 0 00.713-.272 1.867 1.867 0 00.5-.727 7.218 7.218 0 00.314-.963 8.961 8.961 0 00.18-1.066 16.029 16.029 0 00.107-1.681q0-.7-.143-2.133t-.138-2.14v-.328a1.8 1.8 0 00-.521-1.207 1.682 1.682 0 00-1.277-.529.963.963 0 00-.989.714 4.632 4.632 0 00-.2 1.473zm7.828 7.89l-.042-1.419.032-.633q-.086-.235-.346-4.176T85.3 4.664h-.085q-1.765-.028-1.766-.551a.334.334 0 01.234-.285 1.048 1.048 0 01.458-.113l2.957.172.351-.009q.679 0 .68.443a.418.418 0 01-.223.366.921.921 0 01-.5.14l-1-.126-.042.19q0 1.753.361 5.251t.362 5.261a.473.473 0 01-.234.384.858.858 0 01-.511.167z"/></svg>,1,.553,3.073V28.43l0.043,2.1q0,5.324-2.9,5.324a2.01,2.01,0,0,1-1.84-1.13,5.979,5.979,0,0,1-.744-2.133A19.965,19.965,0,0,1,191.82,29.849Zm1.287-2.531L193,29.026a19.066,19.066,0,0,0,.51,4.682,2.7,2.7,0,0,0,1.032,1.374,1.076,1.076,0,0,0,.713-0.272,1.867,1.867,0,0,0,.5-0.727,7.218,7.218,0,0,0,.314-0.963,8.961,8.961,0,0,0,.18-1.066,16.029,16.029,0,0,0,.107-1.681q0-.7-0.143-2.133T196.075,26.1V25.772a1.8,1.8,0,0,0-.521-1.207,1.682,1.682,0,0,0-1.277-.529,0.963,0.963,0,0,0-.989.714,4.632,4.632,0,0,0-.2,1.473Zm7.828,7.89-0.042-1.419c0-.006.01-0.217,0.032-0.633q-0.086-.235-0.346-4.176T200.3,24.164h-0.085q-1.765-.028-1.766-0.551a0.334,0.334,0,0,1,.234-0.285,1.048,1.048,0,0,1,.458-0.113l2.957,0.172,0.351-.009q0.679,0,.68.443a0.418,0.418,0,0,1-.223.366,0.921,0.921,0,0,1-.5.14l-1-.126-0.042.19q0,1.753.361,5.251t0.362,5.261a0.473,0.473,0,0,1-.234.384,0.858,0.858,0,0,1-.511.167Z" transform="translate(-115 -19.5)"/>
</svg>
